<svg xmlns="http://www.w3.org/2000/svg" width="11.667" height="15.003" fill="none" viewBox="0 0 11.666 15.003"><path fill="#B59571" d="M5.83 15c-1.05-.9-2.03-1.88-2.92-2.94C1.58 10.46 0 8.09 0 5.83c-.01-1.15.34-2.28.98-3.24C1.62 1.63 2.53.88 3.6.44A5.8 5.8 0 0 1 6.97.11c1.13.22 2.17.78 2.98 1.6.55.54.98 1.18 1.27 1.89.29.71.44 1.46.44 2.23 0 2.26-1.58 4.63-2.91 6.23-.89 1.06-1.87 2.04-2.92 2.94Zm0-11.67c-.66 0-1.3.26-1.77.73s-.73 1.11-.73 1.77c0 .66.26 1.3.73 1.77s1.11.73 1.77.73c.66 0 1.3-.26 1.77-.73.46-.47.73-1.11.73-1.77 0-.66-.27-1.3-.73-1.77-.47-.47-1.11-.73-1.77-.73Z"/></svg>