<svg xmlns="http://www.w3.org/2000/svg" width="20.02" height="20.017" fill="none"><path fill="#B59571" d="m12.35 10 7.17-7.15c.32-.31.49-.74.49-1.18 0-.45-.17-.87-.49-1.18A1.64 1.64 0 0 0 18.34 0c-.45 0-.87.17-1.19.49L10 7.65 2.85.49C2.54.17 2.12 0 1.67 0 1.23 0 .8.17.49.49.17.8 0 1.22 0 1.67c0 .44.17.87.49 1.18L7.65 10 .49 17.15c-.16.16-.28.34-.37.54-.08.21-.12.43-.12.65 0 .22.04.43.12.64.09.2.21.38.37.54.15.15.34.28.54.36.2.09.42.13.64.13.22 0 .44-.04.64-.13.21-.08.39-.21.54-.36L10 12.35l7.15 7.17c.16.15.34.28.55.36.2.09.42.13.64.13.22 0 .44-.04.64-.13.2-.08.39-.21.54-.36.16-.16.28-.34.37-.54.08-.21.12-.42.12-.64 0-.22-.04-.44-.12-.65-.09-.2-.21-.38-.37-.54L12.35 10Z"/></svg>