<svg xmlns="http://www.w3.org/2000/svg" width="13.333" height="13.333" fill="none" viewBox="0 0 13.334 13.334"><path fill="#B59571" d="M12.49 13.33C5.38 13.34-.01 7.88 0 .83 0 .37.37 0 .83 0h2.2c.41 0 .76.3.82.71.15.98.43 1.93.85 2.83l.08.18c.06.13.07.27.04.4-.04.13-.12.25-.23.33-.68.49-.94 1.46-.41 2.23.67.96 1.5 1.79 2.46 2.46.77.53 1.75.27 2.23-.41.08-.11.2-.19.33-.23.14-.03.28-.02.4.04l.19.08c.89.42 1.85.71 2.83.85.4.06.71.41.71.83v2.2a.772.772 0 0 1-.25.58c-.07.08-.17.14-.27.19-.1.04-.21.06-.32.06Z"/></svg>