<svg xmlns="http://www.w3.org/2000/svg" width="33.333" height="23.333" fill="none"><path fill="#B59571" d="M0 1.65C0 .74.74 0 1.65 0H15c.44 0 .86.17 1.18.48.31.31.48.73.48 1.17 0 .44-.17.86-.48 1.18-.32.31-.74.48-1.18.48H1.65c-.44 0-.86-.17-1.17-.48A1.69 1.69 0 0 1 0 1.65Zm0 10.01C0 10.75.74 10 1.65 10h30.02c.44 0 .86.18 1.17.49.31.31.49.73.49 1.17 0 .44-.18.86-.49 1.17-.31.32-.73.49-1.17.49H1.65c-.44 0-.86-.17-1.17-.49-.31-.31-.48-.73-.48-1.17Zm1.65 8.35a1.659 1.659 0 0 0-1.17 2.83c.31.31.73.49 1.17.49h20.02c.44 0 .86-.18 1.17-.49.31-.31.49-.73.49-1.17 0-.44-.18-.86-.49-1.17-.31-.31-.73-.49-1.17-.49H1.65Z"/></svg>