<svg xmlns="http://www.w3.org/2000/svg" width="33.333" height="20" fill="none"><path fill="#B59571" d="M33.28 1.47c.28.77-.59 2.55-2.62 5.36-.28.38-.64.89-1.09 1.53-.93 1.19-1.46 1.98-1.58 2.36-.2.52-.12 1 .25 1.47.2.26.66.77 1.39 1.53h.06v.07c1.66 1.57 2.78 2.91 3.34 4.02l.12.25.13.48v.61l-.43.48-1.03.22-4.43.13c-.29.04-.62 0-1.01-.13-.38-.13-.67-.25-.88-.38l-.36-.26c-.37-.25-.77-.63-1.22-1.15-.44-.51-.84-.97-1.18-1.4-.35-.43-.7-.78-1.06-1.05-.37-.28-.69-.38-.98-.29-.04 0-.09.02-.15.06-.06.05-.16.14-.3.29-.14.15-.26.33-.37.54-.1.22-.19.52-.27.93-.08.4-.12.88-.12 1.44 0 .17-.02.32-.06.47-.04.15-.08.27-.12.35l-.06.07c-.25.25-.57.38-.97.38h-1.95c-.85.09-1.71 0-2.58-.25-.87-.26-1.63-.59-2.28-.99-.64-.41-1.23-.81-1.76-1.22-.52-.4-.93-.75-1.21-1.05l-.43-.45c-.12-.08-.28-.25-.48-.51-.21-.25-.62-.8-1.25-1.66-.63-.85-1.24-1.76-1.85-2.74-.61-.98-1.32-2.27-2.13-3.86C1.55 5.52.8 3.87.12 2.17.04 1.96 0 1.79 0 1.66s.02-.23.06-.32l.06-.06C.28 1.02.6.9 1.09.9h4.8c.12 0 .24.03.36.09l.3.16.06.06c.21.13.35.32.43.58.24.59.52 1.22.82 1.88.3.66.54 1.16.7 1.5l.24.51c.37.73.7 1.35 1 1.89.31.53.58.94.82 1.24.25.3.49.53.73.7.24.17.45.26.61.26.16 0 .32-.02.49-.07l.06-.09.21-.42.24-.83.15-1.46V4.6c-.04-.47-.1-.91-.18-1.31-.08-.41-.16-.69-.24-.86l-.06-.19c-.29-.43-.79-.71-1.52-.83-.12 0-.08-.15.12-.45.2-.21.43-.38.67-.51.61-.34 1.98-.49 4.13-.45.93 0 1.72.09 2.37.26.2.04.38.11.54.22.17.11.29.26.37.45.08.19.14.38.18.57.04.19.06.47.06.83v.99c-.04.34-.06.77-.06 1.28v1.53c0 .13-.01.38-.03.77-.02.38-.03.68-.03.89 0 .21.02.46.06.73.04.28.11.51.21.7.1.2.24.33.4.42.08.04.17.07.27.1.1.02.25-.05.46-.2.2-.15.42-.36.66-.63.25-.28.55-.7.92-1.25.36-.55.74-1.19 1.15-1.91.69-1.28 1.31-2.66 1.88-4.15.04-.09.09-.18.15-.29.06-.11.14-.18.22-.22h.06l.06-.07.24-.06h.36L31.52.9c.44-.05.81-.03 1.12.06.3.08.47.19.51.32l.13.19Z"/></svg>