<svg xmlns="http://www.w3.org/2000/svg" width="33.33" height="22.231" fill="none"><path fill="#B59571" d="M32.63 3.48a3.87 3.87 0 0 0-1.07-1.76c-.52-.5-1.16-.85-1.85-1.03C27.1 0 16.65 0 16.65 0 12.29-.05 7.94.17 3.61.65c-.7.2-1.33.56-1.86 1.06-.51.49-.88 1.1-1.08 1.77A40.69 40.69 0 0 0 0 11.11c-.02 2.56.21 5.11.67 7.63.19.66.56 1.27 1.08 1.76.51.49 1.16.85 1.86 1.03 2.64.69 13.04.69 13.04.69 4.36.05 8.72-.17 13.06-.65.69-.18 1.33-.54 1.85-1.03s.88-1.1 1.07-1.77c.48-2.51.71-5.07.69-7.63.04-2.57-.2-5.14-.69-7.66Zm-19.3 12.38v-9.5l8.69 4.75-8.69 4.75Z"/></svg>